<svg width="477" height="83" viewBox="0 0 477 83" fill="none" xmlns="http://www.w3.org/2000/svg">
<path d="M22.3438 46.8945H19.5703V41.7383H31.7188C31.7188 44.707 31.5104 46.9141 31.0938 48.3594C30.6901 49.7526 29.8438 51.1654 28.5547 52.5977C27.2917 54.0169 25.7617 55.0521 23.9648 55.7031C22.168 56.3542 20.2409 56.6797 18.1836 56.6797C15.1237 56.6797 12.3438 56.1719 9.84375 55.1562C7.33073 54.1667 5.39062 52.526 4.02344 50.2344C2.64323 47.9818 1.95312 45.4557 1.95312 42.6562C1.95312 38.4245 3.34635 35.013 6.13281 32.4219C8.89323 29.8307 12.2786 28.5352 16.2891 28.5352C19.6354 28.5352 22.2591 29.349 24.1602 30.9766V29.082H30.7031V38.5742H24.1602C23.5872 37.4023 22.8385 36.5169 21.9141 35.918C21.0026 35.319 19.9349 35.0195 18.7109 35.0195C16.9922 35.0195 15.7292 35.5794 14.9219 36.6992C14.1276 37.819 13.7305 39.8763 13.7305 42.8711C13.7305 45.8529 14.1471 47.8776 14.9805 48.9453C15.8268 50.026 17.0573 50.5664 18.6719 50.5664C21.1198 50.5664 22.3438 49.3424 22.3438 46.8945ZM50.4297 51.4062V47.9492C49.5573 47.4805 48.6328 47.2461 47.6562 47.2461C46.7969 47.2461 46.1133 47.4805 45.6055 47.9492C45.0977 48.431 44.8438 49.043 44.8438 49.7852C44.8438 50.5534 45.1042 51.1784 45.625 51.6602C46.1589 52.1549 46.7708 52.4023 47.4609 52.4023C48.6849 52.4023 49.6745 52.0703 50.4297 51.4062ZM43.0664 42.5977L35.3711 41.8164C36.2174 39.9544 37.5846 38.6458 39.4727 37.8906C41.3346 37.1354 44.082 36.7578 47.7148 36.7578C49.056 36.7578 50.2539 36.8034 51.3086 36.8945C52.3763 36.9727 53.3268 37.0964 54.1602 37.2656C55.8919 37.5911 57.1745 38.0924 58.0078 38.7695C58.8411 39.4596 59.4206 40.2018 59.7461 40.9961C60.0846 41.8164 60.2539 43.0924 60.2539 44.8242V50.293H62.6758V56.25H50.4297V54.9609C48.737 56.0547 46.4714 56.6016 43.6328 56.6016C40.9635 56.6016 38.9518 56.0156 37.5977 54.8438C36.2305 53.6719 35.5469 52.2852 35.5469 50.6836C35.5469 48.9128 36.3867 47.4609 38.0664 46.3281C39.7331 45.1953 41.9076 44.6289 44.5898 44.6289C47.0378 44.6289 48.9844 44.9479 50.4297 45.5859V45.0195C50.4297 43.8477 50.3451 43.0273 50.1758 42.5586C49.9935 42.0638 49.5898 41.6406 48.9648 41.2891C48.3138 40.9505 47.5586 40.7812 46.6992 40.7812C45.1237 40.7812 43.9128 41.3867 43.0664 42.5977ZM80.3906 56.25H65.5469V50.293H67.8906V43.2617H65.5078V37.3047H77.7344V39.9023C78.6719 39.1081 79.9023 38.418 81.4258 37.832C82.9362 37.2461 84.3815 36.9531 85.7617 36.9531C88.9779 36.9531 91.1328 38.1901 92.2266 40.6641C95.1302 38.1901 98.0924 36.9531 101.113 36.9531C102.767 36.9531 104.128 37.3047 105.195 38.0078C106.289 38.724 107.057 39.6745 107.5 40.8594C107.956 42.0833 108.184 43.8021 108.184 46.0156V50.293H110.684V56.25H98.3594V48.1055C98.3594 45.9831 98.1966 44.6615 97.8711 44.1406C97.5456 43.6198 96.9596 43.3594 96.1133 43.3594C95.0456 43.3594 93.9714 43.763 92.8906 44.5703V50.293H95.5664V56.25H83.0664V48.1445C83.0664 46.0612 82.9232 44.7396 82.6367 44.1797C82.3503 43.6328 81.7708 43.3594 80.8984 43.3594C79.8958 43.3594 78.8411 43.763 77.7344 44.5703V50.293H80.3906V56.25ZM123.086 45.293H128.613C128.639 44.9023 128.652 44.681 128.652 44.6289C128.652 43.6003 128.392 42.7474 127.871 42.0703C127.35 41.4062 126.66 41.0742 125.801 41.0742C124.915 41.0742 124.238 41.4388 123.77 42.168C123.301 42.9102 123.066 43.8216 123.066 44.9023C123.066 45.0456 123.073 45.1758 123.086 45.293ZM129.336 50.2539L137.441 51.25C137.077 52.0964 136.569 52.8581 135.918 53.5352C135.267 54.1992 134.473 54.7786 133.535 55.2734C131.647 56.2891 129.388 56.7969 126.758 56.7969C122.344 56.7969 119.023 55.8789 116.797 54.043C114.57 52.2201 113.457 49.8307 113.457 46.875C113.457 43.9844 114.557 41.5755 116.758 39.6484C118.932 37.7214 121.882 36.7578 125.605 36.7578C129.186 36.7578 132.103 37.6693 134.355 39.4922C136.569 41.3021 137.747 44.056 137.891 47.7539H122.969C123.008 50.8268 124.154 52.3633 126.406 52.3633C127.76 52.3633 128.737 51.6602 129.336 50.2539ZM151.914 56.25H141.387V49.7461H143.477V35.5859H141.328V29.082H157.715L161.719 39.5703L165.82 29.082H182.109V35.5859H179.98V49.7461H182.168V56.25H167.988V49.7461H170.156V34.5703L161.953 56.25H157.891L149.766 34.7656V49.7461H151.914V56.25ZM200.469 51.4062V47.9492C199.596 47.4805 198.672 47.2461 197.695 47.2461C196.836 47.2461 196.152 47.4805 195.645 47.9492C195.137 48.431 194.883 49.043 194.883 49.7852C194.883 50.5534 195.143 51.1784 195.664 51.6602C196.198 52.1549 196.81 52.4023 197.5 52.4023C198.724 52.4023 199.714 52.0703 200.469 51.4062ZM193.105 42.5977L185.41 41.8164C186.257 39.9544 187.624 38.6458 189.512 37.8906C191.374 37.1354 194.121 36.7578 197.754 36.7578C199.095 36.7578 200.293 36.8034 201.348 36.8945C202.415 36.9727 203.366 37.0964 204.199 37.2656C205.931 37.5911 207.214 38.0924 208.047 38.7695C208.88 39.4596 209.46 40.2018 209.785 40.9961C210.124 41.8164 210.293 43.0924 210.293 44.8242V50.293H212.715V56.25H200.469V54.9609C198.776 56.0547 196.51 56.6016 193.672 56.6016C191.003 56.6016 188.991 56.0156 187.637 54.8438C186.27 53.6719 185.586 52.2852 185.586 50.6836C185.586 48.9128 186.426 47.4609 188.105 46.3281C189.772 45.1953 191.947 44.6289 194.629 44.6289C197.077 44.6289 199.023 44.9479 200.469 45.5859V45.0195C200.469 43.8477 200.384 43.0273 200.215 42.5586C200.033 42.0638 199.629 41.6406 199.004 41.2891C198.353 40.9505 197.598 40.7812 196.738 40.7812C195.163 40.7812 193.952 41.3867 193.105 42.5977ZM230.195 56.25H215.195V50.293H217.637V43.2617H215.195V37.3047H227.461V39.707C229.87 37.8711 232.454 36.9531 235.215 36.9531C237.637 36.9531 239.46 37.6237 240.684 38.9648C241.895 40.306 242.5 42.4609 242.5 45.4297V50.293H244.746V56.25H232.676V47.832C232.676 45.9961 232.52 44.7852 232.207 44.1992C231.868 43.6263 231.224 43.3398 230.273 43.3398C229.401 43.3398 228.464 43.6719 227.461 44.3359V50.293H230.195V56.25ZM260.723 56.25H247.305V50.293H249.258V43.2617H247.305V37.3047H259.082V50.293H260.723V56.25ZM248.438 31.9531C248.438 30.9245 248.965 30.0977 250.02 29.4727C251.061 28.8477 252.35 28.5352 253.887 28.5352C255.462 28.5352 256.732 28.8607 257.695 29.5117C258.646 30.1758 259.121 30.9831 259.121 31.9336C259.121 32.9622 258.626 33.776 257.637 34.375C256.634 34.987 255.371 35.293 253.848 35.293C252.298 35.293 251.009 35.013 249.98 34.4531C248.952 33.9062 248.438 33.0729 248.438 31.9531ZM278.789 51.4062V47.9492C277.917 47.4805 276.992 47.2461 276.016 47.2461C275.156 47.2461 274.473 47.4805 273.965 47.9492C273.457 48.431 273.203 49.043 273.203 49.7852C273.203 50.5534 273.464 51.1784 273.984 51.6602C274.518 52.1549 275.13 52.4023 275.82 52.4023C277.044 52.4023 278.034 52.0703 278.789 51.4062ZM271.426 42.5977L263.73 41.8164C264.577 39.9544 265.944 38.6458 267.832 37.8906C269.694 37.1354 272.441 36.7578 276.074 36.7578C277.415 36.7578 278.613 36.8034 279.668 36.8945C280.736 36.9727 281.686 37.0964 282.52 37.2656C284.251 37.5911 285.534 38.0924 286.367 38.7695C287.201 39.4596 287.78 40.2018 288.105 40.9961C288.444 41.8164 288.613 43.0924 288.613 44.8242V50.293H291.035V56.25H278.789V54.9609C277.096 56.0547 274.831 56.6016 271.992 56.6016C269.323 56.6016 267.311 56.0156 265.957 54.8438C264.59 53.6719 263.906 52.2852 263.906 50.6836C263.906 48.9128 264.746 47.4609 266.426 46.3281C268.092 45.1953 270.267 44.6289 272.949 44.6289C275.397 44.6289 277.344 44.9479 278.789 45.5859V45.0195C278.789 43.8477 278.704 43.0273 278.535 42.5586C278.353 42.0638 277.949 41.6406 277.324 41.2891C276.673 40.9505 275.918 40.7812 275.059 40.7812C273.483 40.7812 272.272 41.3867 271.426 42.5977Z" fill="black"/>
<path d="M434.77 4.2087e-07H352.252C345.451 -0.000971029 338.755 1.67979 332.76 4.89265C326.765 8.10551 321.658 12.7508 317.893 18.4149C314.128 24.079 311.822 30.5862 311.18 37.3571C310.538 44.1281 311.581 50.9527 314.214 57.2233C316.848 63.494 320.991 69.0162 326.275 73.2982C331.56 77.5803 337.821 80.4893 344.501 81.7663C351.181 83.0434 358.074 82.6488 364.565 80.6177C371.056 78.5866 376.944 74.9821 381.704 70.125H405.299C410.06 74.9816 415.947 78.5858 422.437 80.617C428.927 82.6482 435.819 83.0434 442.499 81.7672C449.178 80.491 455.439 77.5832 460.723 73.3025C466.007 69.0218 470.151 63.5011 472.786 57.2317C475.421 50.9623 476.465 44.1387 475.825 37.3683C475.185 30.598 472.881 24.0908 469.118 18.4261C465.355 12.7614 460.251 8.1149 454.258 4.90011C448.265 1.68532 441.571 0.00200454 434.77 4.2087e-07ZM374.939 44.3438C374.939 45.1643 374.614 45.9512 374.033 46.5314C373.453 47.1116 372.666 47.4375 371.846 47.4375H358.439V60.8438C358.439 61.6643 358.114 62.4512 357.533 63.0314C356.953 63.6116 356.166 63.9375 355.346 63.9375H349.158C348.338 63.9375 347.551 63.6116 346.971 63.0314C346.39 62.4512 346.064 61.6643 346.064 60.8438V47.4375H332.658C331.838 47.4375 331.051 47.1116 330.471 46.5314C329.89 45.9512 329.564 45.1643 329.564 44.3438V38.1562C329.564 37.3357 329.89 36.5488 330.471 35.9686C331.051 35.3885 331.838 35.0625 332.658 35.0625H346.064V21.6562C346.064 20.8357 346.39 20.0488 346.971 19.4686C347.551 18.8884 348.338 18.5625 349.158 18.5625H355.346C356.166 18.5625 356.953 18.8884 357.533 19.4686C358.114 20.0488 358.439 20.8357 358.439 21.6562V35.0625H371.846C372.666 35.0625 373.453 35.3885 374.033 35.9686C374.614 36.5488 374.939 37.3357 374.939 38.1562V44.3438ZM430.627 63.9375C428.587 63.9375 426.594 63.3327 424.898 62.1995C423.202 61.0664 421.88 59.4558 421.099 57.5714C420.319 55.6871 420.115 53.6136 420.513 51.6131C420.911 49.6127 421.893 47.7752 423.335 46.333C424.777 44.8907 426.615 43.9086 428.615 43.5107C430.616 43.1127 432.689 43.317 434.573 44.0975C436.458 44.878 438.068 46.1998 439.202 47.8957C440.335 49.5916 440.939 51.5854 440.939 53.625C440.939 56.36 439.853 58.9831 437.919 60.917C435.985 62.851 433.362 63.9375 430.627 63.9375ZM447.127 39.1875C445.087 39.1875 443.094 38.5827 441.398 37.4495C439.702 36.3164 438.38 34.7058 437.599 32.8214C436.819 30.9371 436.615 28.8636 437.013 26.8631C437.411 24.8627 438.393 23.0252 439.835 21.583C441.277 20.1407 443.115 19.1586 445.115 18.7607C447.116 18.3627 449.189 18.567 451.073 19.3475C452.958 20.128 454.568 21.4498 455.702 23.1457C456.835 24.8416 457.439 26.8354 457.439 28.875C457.439 31.61 456.353 34.2331 454.419 36.167C452.485 38.101 449.862 39.1875 447.127 39.1875Z" fill="black"/>
</svg>
