<svg width="32" height="32" viewBox="0 0 32 32" fill="none" xmlns="http://www.w3.org/2000/svg">
<g clip-path="url(#clip0)">
<path fill-rule="evenodd" clip-rule="evenodd" d="M31.88 6.16C30.863 6.62 29.744 6.899 28.648 7.083C29.168 6.995 29.936 6.053 30.243 5.671C30.711 5.09 31.1 4.426 31.319 3.711C31.347 3.655 31.369 3.585 31.313 3.542C31.243 3.515 31.197 3.529 31.141 3.557C29.9275 4.20495 28.6379 4.69878 27.302 5.027C27.2557 5.04141 27.2063 5.04248 27.1594 5.0301C27.1125 5.01772 27.0701 4.99239 27.037 4.957C26.9344 4.83385 26.8224 4.71884 26.702 4.613C26.1474 4.1353 25.5193 3.75034 24.842 3.473C23.9378 3.10676 22.9625 2.94952 21.989 3.013C21.0433 3.07729 20.1214 3.33782 19.282 3.778C18.4411 4.21757 17.6987 4.82391 17.1 5.56C16.4787 6.32429 16.0335 7.2161 15.796 8.172C15.572 9.092 15.59 10 15.726 10.929C15.748 11.083 15.734 11.104 15.595 11.083C10.319 10.3 5.94898 8.412 2.39998 4.37C2.24598 4.194 2.16197 4.194 2.03597 4.383C0.482975 6.711 1.23598 10.45 3.17598 12.288C3.43498 12.533 3.69997 12.778 3.98697 13.001C3.88297 13.023 2.59198 12.883 1.44098 12.288C1.28698 12.191 1.20998 12.247 1.19598 12.421C1.18598 12.6738 1.20004 12.9269 1.23798 13.177C1.53598 15.537 3.16998 17.719 5.40798 18.571C5.67398 18.682 5.96698 18.781 6.25398 18.829C5.74398 18.941 5.21897 19.021 3.75697 18.907C3.57497 18.871 3.50498 18.962 3.57498 19.137C4.67298 22.132 7.04498 23.023 8.82098 23.53C9.05898 23.572 9.29698 23.572 9.53498 23.628C9.52098 23.649 9.50698 23.649 9.49298 23.67C8.90298 24.568 6.86098 25.237 5.90998 25.57C4.17998 26.174 2.29698 26.446 0.467975 26.266C0.175975 26.223 0.113975 26.226 0.0349751 26.266C-0.0450249 26.316 0.0249751 26.386 0.118975 26.461C0.488975 26.706 0.866975 26.923 1.25198 27.133C2.40792 27.7493 3.62785 28.2372 4.88998 28.588C11.427 30.393 18.79 29.067 23.7 24.19C27.553 20.36 28.904 15.079 28.904 9.79C28.904 9.584 29.148 9.47 29.294 9.36C30.297 8.607 31.094 7.705 31.842 6.698C32.01 6.472 32 6.271 32 6.188V6.16C32 6.076 32.01 6.101 31.88 6.16Z" fill="#3EBCFE"/>
</g>
<defs>
<clipPath id="clip0">
<rect width="32" height="32" fill="white"/>
</clipPath>
</defs>
</svg>
